<svg xmlns="http://www.w3.org/2000/svg" class="controlBtn" style="cursor: pointer; width: 36px; height: 36px; margin-left: 4px;"><circle class="controlBtnBg" fill="#FFFFFF" cx="18" cy="18" r="15" style="fill: rgb(0, 0, 0);"></circle><g class="controlBtnIco" id="CBC-icoScFull" style="fill: rgb(255, 255, 255); display: none;"><path style="fill-rule:evenodd;clip-rule:evenodd;" d="M9.931,10.27c0,2.499,0.003,6.241,0.003,6.241l2.09-2.089l2.787,2.787l2.151-2.15l-2.787-2.787l2.038-2.038C16.212,10.233,14.187,10.233,9.931,10.27z"></path><path style="fill-rule:evenodd;clip-rule:evenodd;" d="M9.931,26.389c0-2.345,0.003-6.292,0.003-6.292l2.09,2.09L14.81,19.4l2.151,2.15l-2.787,2.787l2.038,2.038C16.212,26.376,11.697,26.389,9.931,26.389z"></path><path style="fill-rule:evenodd;clip-rule:evenodd;" d="M26.018,10.27c0,3.451-0.002,6.241-0.002,6.241l-2.09-2.089l-2.787,2.787l-2.15-2.15l2.787-2.787l-2.038-2.038C19.737,10.233,24.158,10.27,26.018,10.27z"></path><path style="fill-rule:evenodd;clip-rule:evenodd;" d="M26.018,26.389c0-2.433-0.002-6.292-0.002-6.292l-2.09,2.09L21.139,19.4l-2.15,2.15l2.787,2.787l-2.038,2.038C19.737,26.376,22.503,26.389,26.018,26.389z"></path></g><g class="controlBtnIco" id="CBC-icoScNormal" style="display: block; fill: rgb(255, 255, 255);"><path style="fill-rule:evenodd;clip-rule:evenodd;" d="M16.451,16.792c-1.825,0-5.87-0.003-5.87-0.003l1.95-1.95l-2.6-2.6l2.006-2.006l2.6,2.6l1.901-1.901C16.439,10.931,16.461,13.868,16.451,16.792z"></path><path style="fill-rule:evenodd;clip-rule:evenodd;" d="M19.409,16.792c2.777-0.001,5.871-0.003,5.871-0.003l-1.95-1.95l2.6-2.6l-2.006-2.006l-2.6,2.6l-1.902-1.901C19.422,10.931,19.409,13.512,19.409,16.792z"></path><path style="fill-rule:evenodd;clip-rule:evenodd;" d="M16.451,19.779c-2.331,0.001-5.87,0.003-5.87,0.003l1.95,1.95l-2.6,2.6l2.006,2.006l2.6-2.6l1.901,1.901C16.439,25.64,16.454,22.747,16.451,19.779z"></path><path style="fill-rule:evenodd;clip-rule:evenodd;" d="M19.409,19.779c2.03,0.001,5.871,0.003,5.871,0.003l-1.95,1.95l2.6,2.6l-2.006,2.006l-2.6-2.6l-1.902,1.901C19.422,25.64,19.417,22.615,19.409,19.779z"></path></g></svg>
