<svg xmlns="http://www.w3.org/2000/svg" class="controlBtn" style="cursor: pointer; width: 36px; height: 36px; margin-left: 4px;"><circle class="controlBtnBg" fill="#FFFFFF" cx="18" cy="18" r="15" style="fill: rgb(0, 0, 0);"></circle><g class="controlBtnIco" id="CBC-icoUnMute" style="fill: rgb(255, 255, 255); display: none;"><path d="M24.504,12.331l-0.682,0.827c1.271,1.388,2.077,3.238,2.077,5.269c0,2.028-0.803,3.875-2.071,5.262l0.681,0.845c1.45-1.633,2.328-3.744,2.328-6.107C26.837,16.07,25.948,13.963,24.504,12.331z"></path><path d="M22.696,14.021l-0.608,0.873c0.902,0.905,1.474,2.154,1.474,3.532c0,1.406-0.595,2.677-1.528,3.587l0.631,0.838c1.127-1.152,1.808-2.685,1.808-4.424C24.472,16.719,23.787,15.168,22.696,14.021z"></path><path d="M20.908,15.791l-0.485,0.989c0.463,0.397,0.757,0.987,0.757,1.645c0,0.725-0.165,1.381-0.712,1.775l0.468,0.836c0.716-0.642,1.166-1.573,1.166-2.609C22.103,17.375,21.641,16.433,20.908,15.791z"></path><path d="M9,16.489v3.96C9,20.953,9.761,22,10.301,22H13v-7h-2.699C9.761,15,9,15.984,9,16.489z"></path><path d="M17.893,12.383L14,15.21v6.486l3.893,2.858c0.541,0,1.107-0.409,1.107-0.914V13.296C19,12.791,18.434,12.383,17.893,12.383z"></path></g><g class="controlBtnIco" id="CBC-icoMute" style="display: block; fill: rgb(255, 255, 255);"><path style="fill-rule:evenodd;clip-rule:evenodd;" d="M24.803,18.737l1.783,1.783c0.116,0.117,0.116,0.304,0,0.42l-0.629,0.63c-0.116,0.116-0.304,0.116-0.419,0l-1.784-1.783L21.97,21.57c-0.117,0.116-0.304,0.116-0.42,0l-0.629-0.63c-0.116-0.116-0.116-0.303,0-0.42l1.783-1.783l-1.783-1.785c-0.116-0.115-0.116-0.303,0-0.419l0.629-0.63c0.116-0.116,0.303-0.116,0.42,0l1.783,1.784l1.784-1.784c0.116-0.116,0.304-0.116,0.419,0l0.629,0.63c0.116,0.116,0.116,0.304,0,0.419L24.803,18.737z"></path><path d="M9,16.489v3.96C9,20.953,9.761,22,10.301,22H13v-7h-2.699C9.761,15,9,15.984,9,16.489z"></path><path d="M17.893,12.383L14,15.21v6.486l3.893,2.858c0.541,0,1.107-0.409,1.107-0.914V13.296C19,12.791,18.434,12.383,17.893,12.383z"></path></g></svg>
